<svg xmlns="http://www.w3.org/2000/svg" width="17" height="12" viewBox="0 0 17 12"><g><g><path fill="#5a5a5a" d="M1.684 5.795a7.55 7.55 0 0 0 6.816 4.25 7.55 7.55 0 0 0 6.815-4.25A7.55 7.55 0 0 0 8.5 1.545a7.55 7.55 0 0 0-6.816 4.25zm15.316 0c-1.337 3.393-4.636 5.796-8.5 5.796S1.337 9.188 0 5.795C1.337 2.403 4.636 0 8.5 0s7.163 2.403 8.5 5.795zm-10.432 0a1.933 1.933 0 1 0 3.865-.001 1.933 1.933 0 0 0-3.865.001zm5.41 0A3.482 3.482 0 0 1 8.5 9.273a3.483 3.483 0 0 1-3.477-3.478A3.483 3.483 0 0 1 8.5 2.318a3.482 3.482 0 0 1 3.477 3.477z"/></g></g></svg>