<svg xmlns="http://www.w3.org/2000/svg" width="36" height="50" viewBox="0 0 36 50"><g><g><path fill="#6056dd" d="M36.087 17.5c0 13.125-18.084 32.5-18.084 32.5S-.08 30.625-.08 17.5C-.08 7.825 8.006 0 18.003 0c9.998 0 18.084 7.825 18.084 17.5zM18.004 42.2C23.48 35.475 30.92 24.7 30.92 17.5c0-6.9-5.786-12.5-12.916-12.5-7.13 0-12.917 5.6-12.917 12.5 0 7.125 7.543 18.025 12.917 24.7z"/></g><g><path fill="#6056dd" d="M17.998 23.75c3.567 0 6.459-2.798 6.459-6.25s-2.892-6.25-6.459-6.25c-3.567 0-6.458 2.798-6.458 6.25s2.891 6.25 6.458 6.25z"/></g></g></svg>