<svg xmlns="http://www.w3.org/2000/svg" width="46" height="46" viewBox="0 0 46 46"><g><g><path fill="#ff9400" d="M10.475 11.975l-3 3a37.064 37.064 0 0 1-1.9-9.475H9.35c.15 2.225.525 4.4 1.125 6.475zm30.025 24.7V40.4a38.57 38.57 0 0 1-9.5-1.875l3-2.975c2.125.6 4.3.975 6.5 1.125zM3 .5A2.507 2.507 0 0 0 .5 3C.5 26.475 19.525 45.5 43 45.5c1.375 0 2.5-1.125 2.5-2.5v-8.725c0-1.375-1.125-2.5-2.5-2.5-3.1 0-6.125-.5-8.925-1.425-.25-.1-.525-.125-.775-.125-.65 0-1.275.25-1.775.725l-5.5 5.5C18.95 32.825 13.15 27.05 9.55 19.975l5.5-5.5c.7-.7.9-1.675.625-2.55A28.4 28.4 0 0 1 14.25 3c0-1.375-1.125-2.5-2.5-2.5z"/></g></g></svg>